<?xml version="1.0" encoding="UTF-8"?>
<svg width="100px" height="100px" viewBox="0 0 100 100" version="1.1" xmlns="http://www.w3.org/2000/svg" xmlns:xlink="http://www.w3.org/1999/xlink">
    <!-- Generator: Sketch 53.2 (72643) - https://sketchapp.com -->
    <title>Custom Preset</title>
    <desc>Created with Sketch.</desc>
    <g id="Custom-Preset" stroke="none" stroke-width="1" fill="none" fill-rule="evenodd">
        <g id="iconfinder_Picture18_3289560" transform="translate(21.000000, 10.000000)" fill="#B6CFF5" fill-rule="nonzero">
            <circle id="Oval" cx="19.1" cy="7" r="7"></circle>
            <path d="M37,45.4 L32.3,21.8 C30.4,19.7 28,18.1 25.2,17.1 C23.3,16.4 21.2,16 19,16 C16.8,16 14.8,16.4 12.8,17.1 C10.1,18.1 7.7,19.7 5.7,21.8 L1,45.4 C0.7,47 1.7,48.6 3.4,48.9 C3.6,48.9 3.8,49 4,49 C5.4,49 6.7,48 6.9,46.6 L11.1,26.3 L11.1,80 L17.1,80 L17.1,49 L21.1,49 L21.1,80 L27.1,80 L27.1,26.3 L31.2,46.6 C31.4,48 32.7,49 34.1,49 C34.3,49 34.5,49 34.7,48.9 C36.3,48.6 37.4,47 37,45.4 Z" id="Path"></path>
            <circle id="Oval" cx="46.1" cy="48" r="5"></circle>
            <path d="M56.9,66.2 L53.4,57.8 C52.2,56.1 50.3,54.8 48.2,54.2 C47.6,54.1 46.8,54 46.1,54 L41.1,54 L35.8,45 C35.2,44 34,43.7 33.1,44.3 C32.1,44.9 31.8,46.1 32.4,47 L41.1,61.8 L41.1,80 L45.1,80 L45.1,68 L47.1,68 L47.1,80 L51.1,80 L51.1,62.6 L53.3,67.8 C53.6,68.6 54.4,69 55.1,69 C55.4,69 55.6,69 55.9,68.8 C56.9,68.4 57.4,67.2 56.9,66.2 Z" id="Path"></path>
        </g>
    </g>
</svg>